<mxfile host="app.diagrams.net" modified="2024-03-25T06:20:15.070Z" agent="Mozilla/5.0 (Windows NT 10.0; Win64; x64) AppleWebKit/537.36 (KHTML, like Gecko) Chrome/122.0.0.0 Safari/537.36" etag="kw0oWIagrUvC9CtSNass" version="24.0.7" type="github">
  <diagram name="第 1 页" id="tW5DRHiUeU8TZFg9zVC-">
    <mxGraphModel dx="1434" dy="790" grid="1" gridSize="10" guides="1" tooltips="1" connect="1" arrows="1" fold="1" page="1" pageScale="1" pageWidth="827" pageHeight="1169" math="0" shadow="0">
      <root>
        <mxCell id="0" />
        <mxCell id="1" parent="0" />
        <mxCell id="bh6j4W7WUFc2_1s6YwnL-1" value="现状分析" style="shape=step;perimeter=stepPerimeter;whiteSpace=wrap;html=1;fixedSize=1;" vertex="1" parent="1">
          <mxGeometry x="60" y="210" width="120" height="80" as="geometry" />
        </mxCell>
        <mxCell id="bh6j4W7WUFc2_1s6YwnL-2" value="" style="shape=step;perimeter=stepPerimeter;whiteSpace=wrap;html=1;fixedSize=1;" vertex="1" parent="1">
          <mxGeometry x="180" y="210" width="120" height="80" as="geometry" />
        </mxCell>
        <mxCell id="bh6j4W7WUFc2_1s6YwnL-3" value="" style="shape=step;perimeter=stepPerimeter;whiteSpace=wrap;html=1;fixedSize=1;" vertex="1" parent="1">
          <mxGeometry x="300" y="210" width="120" height="80" as="geometry" />
        </mxCell>
        <mxCell id="bh6j4W7WUFc2_1s6YwnL-4" value="" style="shape=step;perimeter=stepPerimeter;whiteSpace=wrap;html=1;fixedSize=1;" vertex="1" parent="1">
          <mxGeometry x="420" y="210" width="120" height="80" as="geometry" />
        </mxCell>
        <mxCell id="bh6j4W7WUFc2_1s6YwnL-5" value="" style="shape=step;perimeter=stepPerimeter;whiteSpace=wrap;html=1;fixedSize=1;" vertex="1" parent="1">
          <mxGeometry x="540" y="210" width="120" height="80" as="geometry" />
        </mxCell>
      </root>
    </mxGraphModel>
  </diagram>
</mxfile>
